<?xml version="1.0" standalone="no"?>
<!DOCTYPE svg PUBLIC "-//W3C//DTD SVG 20010904//EN"
 "http://www.w3.org/TR/2001/REC-SVG-20010904/DTD/svg10.dtd">
<svg version="1.0" xmlns="http://www.w3.org/2000/svg"
 width="100.000000pt" height="97.000000pt" viewBox="0 0 100.000000 97.000000"
 preserveAspectRatio="xMidYMid meet">

<g transform="translate(0.000000,97.000000) scale(0.100000,-0.100000)"
fill="#000000" stroke="none">
<path d="M0 880 l0 -30 500 0 500 0 0 30 0 30 -500 0 -500 0 0 -30z"/>
<path d="M0 750 l0 -30 500 0 500 0 0 30 0 30 -500 0 -500 0 0 -30z"/>
<path d="M0 630 l0 -30 500 0 500 0 0 30 0 30 -500 0 -500 0 0 -30z"/>
<path d="M0 510 l0 -30 500 0 500 0 0 30 0 30 -500 0 -500 0 0 -30z"/>
<path d="M0 390 l0 -30 500 0 500 0 0 30 0 30 -500 0 -500 0 0 -30z"/>
<path d="M0 270 l0 -30 500 0 500 0 0 30 0 30 -500 0 -500 0 0 -30z"/>
<path d="M0 150 l0 -30 500 0 500 0 0 30 0 30 -500 0 -500 0 0 -30z"/>
<path d="M0 30 l0 -30 500 0 500 0 0 30 0 30 -500 0 -500 0 0 -30z"/>
</g>
</svg>
