<svg xmlns="http://www.w3.org/2000/svg" width="100" height="97" viewBox="0 0 100 97" version="1.1"><path d="M -0 9.027 L -0 12.018 50.250 11.759 L 100.500 11.500 100.795 8.500 L 101.090 5.500 50.545 5.768 L -0 6.036 -0 9.027 M 0.232 9 C 0.232 10.925, 0.438 11.713, 0.689 10.750 C 0.941 9.787, 0.941 8.213, 0.689 7.250 C 0.438 6.287, 0.232 7.075, 0.232 9 M -0 22.027 L -0 25.018 50.250 24.759 L 100.500 24.500 100.795 21.500 L 101.090 18.500 50.545 18.768 L -0 19.036 -0 22.027 M 0.232 22 C 0.232 23.925, 0.438 24.712, 0.689 23.750 C 0.941 22.788, 0.941 21.212, 0.689 20.250 C 0.438 19.288, 0.232 20.075, 0.232 22 M -0 34.027 L -0 37.018 50.250 36.759 L 100.500 36.500 100.795 33.500 L 101.090 30.500 50.545 30.768 L -0 31.036 -0 34.027 M 0.232 34 C 0.232 35.925, 0.438 36.712, 0.689 35.750 C 0.941 34.788, 0.941 33.212, 0.689 32.250 C 0.438 31.288, 0.232 32.075, 0.232 34 M -0 46.027 L -0 49.018 50.250 48.759 L 100.500 48.500 100.795 45.500 L 101.090 42.500 50.545 42.768 L -0 43.036 -0 46.027 M 0.232 46 C 0.232 47.925, 0.438 48.712, 0.689 47.750 C 0.941 46.788, 0.941 45.212, 0.689 44.250 C 0.438 43.288, 0.232 44.075, 0.232 46 M -0 58.027 L -0 61.018 50.250 60.759 L 100.500 60.500 100.795 57.500 L 101.090 54.500 50.545 54.768 L -0 55.036 -0 58.027 M 0.232 58 C 0.232 59.925, 0.438 60.712, 0.689 59.750 C 0.941 58.788, 0.941 57.212, 0.689 56.250 C 0.438 55.288, 0.232 56.075, 0.232 58 M -0 70.027 L -0 73.018 50.250 72.759 L 100.500 72.500 100.795 69.500 L 101.090 66.500 50.545 66.768 L -0 67.036 -0 70.027 M 0.232 70 C 0.232 71.925, 0.438 72.713, 0.689 71.750 C 0.941 70.787, 0.941 69.213, 0.689 68.250 C 0.438 67.287, 0.232 68.075, 0.232 70 M -0 82.027 L -0 85.018 50.250 84.759 L 100.500 84.500 100.795 81.500 L 101.090 78.500 50.545 78.768 L -0 79.036 -0 82.027 M 0.232 82 C 0.232 83.925, 0.438 84.713, 0.689 83.750 C 0.941 82.787, 0.941 81.213, 0.689 80.250 C 0.438 79.287, 0.232 80.075, 0.232 82 M -0 94.027 L -0 97.018 50.250 96.759 L 100.500 96.500 100.795 93.500 L 101.090 90.500 50.545 90.768 L -0 91.036 -0 94.027 M 0.232 94 C 0.232 95.925, 0.438 96.713, 0.689 95.750 C 0.941 94.787, 0.941 93.213, 0.689 92.250 C 0.438 91.287, 0.232 92.075, 0.232 94" stroke="none" fill="#4c545c" fill-rule="evenodd"/><path d="M -0 3.009 L -0 6.018 50.250 5.759 L 100.500 5.500 100.816 2.750 L 101.133 0 50.566 0 L 0 0 -0 3.009 M 0.195 3.500 C 0.215 5.150, 0.439 5.704, 0.693 4.731 C 0.947 3.758, 0.930 2.408, 0.656 1.731 C 0.382 1.054, 0.175 1.850, 0.195 3.500 M 0 15.527 L 0 19.018 50.250 18.759 L 100.500 18.500 100.796 15 L 101.091 11.500 50.546 11.768 L -0 12.036 0 15.527 M 0.252 15.500 C 0.263 17.700, 0.468 18.482, 0.707 17.238 C 0.946 15.994, 0.937 14.194, 0.687 13.238 C 0.437 12.282, 0.241 13.300, 0.252 15.500 M -0 28.027 L -0 31.018 50.250 30.759 L 100.500 30.500 100.795 27.500 L 101.090 24.500 50.545 24.768 L -0 25.036 -0 28.027 M 0.232 28 C 0.232 29.925, 0.438 30.712, 0.689 29.750 C 0.941 28.788, 0.941 27.212, 0.689 26.250 C 0.438 25.288, 0.232 26.075, 0.232 28 M -0 40.027 L -0 43.018 50.250 42.759 L 100.500 42.500 100.795 39.500 L 101.090 36.500 50.545 36.768 L -0 37.036 -0 40.027 M 0.232 40 C 0.232 41.925, 0.438 42.712, 0.689 41.750 C 0.941 40.788, 0.941 39.212, 0.689 38.250 C 0.438 37.288, 0.232 38.075, 0.232 40 M -0 52.027 L -0 55.018 50.250 54.759 L 100.500 54.500 100.795 51.500 L 101.090 48.500 50.545 48.768 L -0 49.036 -0 52.027 M 0.232 52 C 0.232 53.925, 0.438 54.712, 0.689 53.750 C 0.941 52.788, 0.941 51.212, 0.689 50.250 C 0.438 49.288, 0.232 50.075, 0.232 52 M -0 64.027 L -0 67.018 50.250 66.759 L 100.500 66.500 100.795 63.500 L 101.090 60.500 50.545 60.768 L -0 61.036 -0 64.027 M 0.232 64 C 0.232 65.925, 0.438 66.713, 0.689 65.750 C 0.941 64.787, 0.941 63.212, 0.689 62.250 C 0.438 61.288, 0.232 62.075, 0.232 64 M -0 76.027 L -0 79.018 50.250 78.759 L 100.500 78.500 100.795 75.500 L 101.090 72.500 50.545 72.768 L -0 73.036 -0 76.027 M 0.232 76 C 0.232 77.925, 0.438 78.713, 0.689 77.750 C 0.941 76.787, 0.941 75.213, 0.689 74.250 C 0.438 73.287, 0.232 74.075, 0.232 76 M -0 88.027 L -0 91.018 50.250 90.759 L 100.500 90.500 100.795 87.500 L 101.090 84.500 50.545 84.768 L -0 85.036 -0 88.027 M 0.232 88 C 0.232 89.925, 0.438 90.713, 0.689 89.750 C 0.941 88.787, 0.941 87.213, 0.689 86.250 C 0.438 85.287, 0.232 86.075, 0.232 88" stroke="none" fill="#a4acb4" fill-rule="evenodd"/></svg>